<svg width="24" height="24" viewBox="0 0 24 24" fill="none" xmlns="http://www.w3.org/2000/svg">
<path d="M20.4615 11.9783C20.4615 11.9033 20.4345 11.8314 20.3864 11.7784C20.3383 11.7254 20.2731 11.6957 20.2051 11.6957H3.79487C3.72687 11.6957 3.66167 11.7254 3.61358 11.7784C3.5655 11.8314 3.53846 11.9033 3.53846 11.9783V12.5435C3.53846 12.7966 3.63807 13.2679 3.87901 13.9201C4.11042 14.5465 4.44153 15.2603 4.82953 15.9679C5.62751 17.4232 6.57636 18.6885 7.27945 19.1726C7.5043 19.3276 7.64103 19.599 7.64103 19.8913V21.0217C7.64103 21.0967 7.66806 21.1686 7.71615 21.2216C7.76423 21.2746 7.82943 21.3043 7.89744 21.3043H16.1026C16.1706 21.3043 16.2358 21.2745 16.2839 21.2216C16.3319 21.1686 16.359 21.0967 16.359 21.0217V19.8913C16.359 19.599 16.4957 19.3276 16.7206 19.1726C16.995 18.9835 17.379 18.5829 17.8193 17.998C18.2484 17.4281 18.6932 16.7345 19.0954 16.0154C19.4979 15.2956 19.8485 14.566 20.096 13.9267C20.3551 13.2574 20.4615 12.7856 20.4615 12.5435V11.9783ZM22 12.5435C22 13.1492 21.7837 13.8887 21.5112 14.5924C21.2272 15.326 20.8374 16.131 20.4044 16.9051C19.9712 17.6798 19.4858 18.44 19.0032 19.081C18.6477 19.5532 18.2698 19.9919 17.8974 20.3229V21.0217C17.8974 21.5464 17.7082 22.0494 17.3716 22.4204C17.035 22.7914 16.5786 23 16.1026 23H7.89744C7.42141 23 6.96501 22.7914 6.62841 22.4204C6.2918 22.0494 6.10256 21.5464 6.10256 21.0217V20.3274C5.18411 19.5375 4.23824 18.1663 3.51342 16.8444C3.0923 16.0764 2.72212 15.2831 2.45473 14.5593C2.19678 13.861 2 13.1381 2 12.5435V11.9783C2 11.4536 2.18924 10.9506 2.52584 10.5796C2.86244 10.2086 3.31884 10 3.79487 10H20.2051C20.6812 10 21.1376 10.2086 21.4742 10.5796C21.8108 10.9506 22 11.4536 22 11.9783V12.5435Z" fill="#FF5857"/>
<path d="M18.9463 6.25195C19.3593 6.22245 19.7184 6.53327 19.748 6.94629C19.7775 7.35936 19.4667 7.71839 19.0537 7.74805L5.0537 8.74805C4.64063 8.77755 4.28159 8.46673 4.25194 8.05371C4.22243 7.64064 4.53325 7.28161 4.94627 7.25195L18.9463 6.25195Z" fill="#FF5857"/>
<path d="M18.9189 1.25391C19.2966 1.21242 19.652 1.46323 19.7334 1.84278C19.8147 2.22248 19.5931 2.59707 19.2314 2.71387L19.1572 2.73341L5.15718 5.73341C4.75219 5.82019 4.35338 5.56221 4.26656 5.15723C4.17977 4.75224 4.43775 4.35343 4.84273 4.26661L18.8427 1.26661L18.9189 1.25391Z" fill="#FF5857"/>
</svg>
