<?xml version="1.0" encoding="UTF-8"?>
<svg id="Layer_1" xmlns="http://www.w3.org/2000/svg" version="1.1" viewBox="0 0 291.54 452.55">
  <!-- Generator: Adobe Illustrator 29.5.0, SVG Export Plug-In . SVG Version: 2.1.0 Build 137)  -->
  <defs>
    <style>
      .st0 {
        fill: #ff5857;
      }
    </style>
  </defs>
  <path class="st0" d="M209.4,216.69c0-.34.04-.66.11-.95v-11.31h-56.89v18.77c.05.26.08.54.08.84v25.49h.13v147.83c0,10.02,2.26,16.95,6.8,20.76,4.53,3.81,12.41,5.73,23.62,5.73,5.25,0,10.26-.3,15.03-.89,4.77-.6,8.47-1.25,11.1-1.97v-171.45h.02v-32.84Z"/>
  <g>
    <path class="st0" d="M87.4,117.79c44.32-35.87,68.49-93.59,135.09-90.51,20.19.94,39.59,10.3,48.72,28.94,13.55,27.65.48,61.44-15.69,85.03-1.01,1.48-4.1,4.71-4.15,6.18l8.94,29.31-14.64-.78c-.08-.02-.15-.06-.23-.07l-6.28-20.84c-.53-.65-12-2.4-13.77-2.62-45.45-5.65-76.75,1.08-117.01,21.46l-.98-.25c-.16-.8,7.14-6.97,8.29-7.9,26.01-21.15,43.15-27.38,76.25-31.75,1.57-.21,8.96-.47,9.67-1.19,4.55-14.81-.53-30.51-5.8-44.44.93-.7,3.42,2.41,4.04,3.14,9.25,10.95,11.58,24.6,14.53,38.09.12.53.33,2.34,1.13,2.2,1.54-.28,6.93-6.25,8.06-7.77,9.19-12.31,9.62-28.22,7.57-42.84l.73-.19c7.57,15.81,6.66,33.88,2.96,50.6.25.51.91-.05,1.22-.25,3.35-2.19,7.98-9.3,9.88-12.94,15.17-29.03-1.26-67.05-36.33-66.88-35.3.17-76.2,46.27-103.64,66.42-14.86,10.91-39.8,24.72-58.69,23.04-.91-.08-2.32-.15-2.75-1.11,16.18-2.89,30.32-11.94,42.86-22.1Z"/>
    <path class="st0" d="M97.56,213.7c-3.09,2.28-6.75,5.3-9.37,6.58-.45.22-.84.5-1.38.45l-11.99-33.34c-.97-.49-4.03.46-5.35.56-10.59.82-21.56.3-31.22-4.48-27.34-13.51-30.36-54.28-4.49-70.97,12.49-8.06,35.45-11.94,50.08-10.31.55.06,1.14.08,1.27.75-15.12,2.5-31.22,6.19-43.92,15.16-12.6,8.9-17.52,21.82-10.26,36.25,7.91,15.72,24.3,21,41.06,19.2,2.93-.31,6.31-1.47,8.98-1.71.47-.04.89.02,1.31.25l10.77,28.03"/>
  </g>
  <path class="st0" d="M91.84,233.05c-.1-.85.18-1.69.78-2.3,3.53-3.53,7.72-6.46,11.84-9.27.66-.45,1.33-.88,1.99-1.32.39-.26.79-.53,1.18-.79.34-.22.67-.44,1.01-.66,1.14-.73,2.28-1.44,3.42-2.14.18-.11.37-.22.55-.33.92-.55,1.84-1.09,2.76-1.62,11.33-6.55,23.32-11.79,35.74-15.88,7.08-2.38,11.61-3.48,11.61-3.48h0c27.19-7.33,55.96-9.68,83.92-8.8l12.89.64c1.19.06,2.22.86,2.57,2l2.71,8.87h.04s1.93,6.32,1.93,6.32h.04s4.99,22.02,4.99,22.02c-.31.44-.57.34-1.02.29-3.41-.34-7.23-1.38-10.78-1.77-31.97-3.5-65.98.39-98.51,8.49-21.59,5.75-53.03,18.12-61.93,21.68-1.45.58-3.1-.12-3.66-1.57-2.3-5.97-3.66-16.64-4.09-20.37Z"/>
</svg>