<?xml version="1.0" encoding="UTF-8"?>
<svg id="Layer_1" xmlns="http://www.w3.org/2000/svg" version="1.1" viewBox="0 0 902.98 615.52">
  <!-- Generator: Adobe Illustrator 29.5.0, SVG Export Plug-In . SVG Version: 2.1.0 Build 137)  -->
  <defs>
    <style>
      .st0 {
        fill: #ff5857;
      }
    </style>
  </defs>
  <path class="st0" d="M182.62,529.41l-3.53,27.17c-.61,4.67-4.8,8.02-9.49,7.58l-27.53-2.58c-3.58-.34-6.41-3.18-6.78-6.77-3.12-29.99,12.31-36.75,39.88-34.6,4.65.36,8.04,4.58,7.44,9.2Z"/>
  <path class="st0" d="M805.38,139.71c-44.32-35.87-68.49-93.59-135.09-90.51-20.19.94-39.59,10.3-48.72,28.94-13.55,27.65-.48,61.44,15.69,85.03,1.01,1.48,4.1,4.71,4.15,6.18l-8.94,29.31,14.64-.78c.08-.02.15-.06.23-.07l6.28-20.84c.53-.65,12-2.4,13.77-2.62,45.45-5.65,76.75,1.08,117.01,21.46l.98-.25c.16-.8-7.14-6.97-8.29-7.9-26.01-21.15-43.15-27.38-76.25-31.75-1.57-.21-8.96-.47-9.67-1.19-4.55-14.81.53-30.51,5.8-44.44-.93-.7-3.42,2.41-4.04,3.14-9.25,10.95-11.58,24.6-14.53,38.09-.12.53-.33,2.34-1.13,2.2-1.54-.28-6.93-6.25-8.06-7.77-9.19-12.31-9.62-28.22-7.57-42.84l-.73-.19c-7.57,15.81-6.66,33.88-2.96,50.6-.25.51-.91-.05-1.22-.25-3.35-2.19-7.98-9.3-9.88-12.94-15.17-29.03,1.26-67.05,36.33-66.88,35.3.17,76.2,46.27,103.64,66.42,14.86,10.91,39.8,24.72,58.69,23.04.91-.08,2.32-.15,2.75-1.11-16.18-2.89-30.32-11.94-42.86-22.1Z"/>
  <path class="st0" d="M795.22,235.62c3.09,2.28,6.75,5.3,9.37,6.58.45.22.84.5,1.38.45l11.99-33.34c.97-.49,4.03.46,5.35.56,10.59.82,21.56.3,31.22-4.48,27.34-13.51,30.36-54.28,4.49-70.97-12.49-8.06-35.45-11.94-50.08-10.31-.55.06-1.14.08-1.27.75,15.12,2.5,31.22,6.19,43.92,15.16,12.6,8.9,17.52,21.82,10.26,36.25-7.91,15.72-24.3,21-41.06,19.2-2.93-.31-6.31-1.47-8.98-1.71-.47-.04-.89.02-1.31.25l-10.77,28.03"/>
  <path class="st0" d="M97.03,258.08l-3.53,27.17c-.61,4.67-4.8,8.02-9.49,7.58l-27.53-2.58c-3.58-.34-6.41-3.18-6.78-6.77-3.12-29.99,12.31-36.75,39.88-34.6,4.65.36,8.04,4.58,7.44,9.2Z"/>
  <path class="st0" d="M542.14,289.06l-3.53,27.17c-.61,4.67-4.8,8.02-9.49,7.58l-27.53-2.58c-3.58-.34-6.41-3.18-6.78-6.77-3.12-29.99,12.31-36.75,39.88-34.6,4.65.36,8.04,4.58,7.44,9.2Z"/>
  <path class="st0" d="M799.15,254.4c.1-.85-.18-1.69-.78-2.3-3.53-3.53-7.72-6.46-11.84-9.27-.66-.45-1.33-.88-1.99-1.32-.39-.26-.79-.53-1.18-.79-.34-.22-.67-.44-1.01-.66-1.14-.73-2.28-1.44-3.42-2.14-.18-.11-.37-.22-.55-.33-.92-.55-1.84-1.09-2.76-1.62-11.33-6.55-23.32-11.79-35.74-15.88-7.08-2.38-11.61-3.48-11.61-3.48h0c-27.19-7.33-55.96-9.68-83.92-8.8l-12.89.64c-1.19.06-2.22.86-2.57,2l-2.71,8.87h-.04s-1.93,6.32-1.93,6.32h-.04s-4.99,22.02-4.99,22.02c.31.44.57.34,1.02.29,3.41-.34,7.23-1.38,10.78-1.77,31.97-3.5,65.98.39,98.51,8.49,21.59,5.75,53.03,18.12,61.93,21.68,1.45.58,3.1-.12,3.66-1.57,2.3-5.97,3.66-16.64,4.09-20.37Z"/>
  <path class="st0" d="M244.99,517.29c.65.21,1.33.5,2.01.8,1.86.8,3.93-.57,3.92-2.6l-.06-12.41c0-1.27-.56-2.48-1.51-3.32-2.98-2.64-6.21-4.72-9.37-6.71-.94-.59-1.89-1.17-2.84-1.73-.11-.06-.21-.13-.32-.2-.06-.04-.12-.07-.18-.11-3.16-1.88-6.31-3.52-9.43-4.99-.11-.05-.22-.1-.32-.15-.77-.36-1.53-.71-2.29-1.04-.48-.22-.97-.43-1.46-.64-.21-.09-.43-.18-.64-.27-6.42-2.71-12.9-4.78-19.4-6.28-10.3-2.43-17.29-2.71-17.29-2.71h0c-17.14-1.44-34.17.6-50.3,4.85l-1.87.53c-3.61.76-2.36.49-5.03,1.06-.2.04-.44.08-.69.12-1.38.2-2.41,1.4-2.4,2.8l.03,9.41h-.03s.05,16.74.05,16.74c.02.03.04.03.06.06l.02,6.41c.31.39.46.25.76.14,2.26-.84,4.65-2.41,6.98-3.32,27.39-10.58,59.76-9.46,90.39-2.36,8.35,2.06,15.88,4.26,20.88,5.81.12.04.24.07.35.11Z"/>
  <path class="st0" d="M231.22,331.1c-.97-3.47-6.43-20.86-9.63-27.17-.69-1.35-2.32-1.92-3.7-1.29l-39.54,17.98c-1.26.57-1.91,1.96-1.57,3.31,1.97,7.78,4.87,15.39,6.58,23.24,5.62,25.82,7.79,46.05-24.84,49.33-39.97,4.01-43.56-27.94-56.09-55.81-4.55-10.12-6-13.01-17.25-8.67-5.45,2.1-27.97,13.22-30.22,17.53-.95,1.82-.33,3.8.17,5.76,7.16,27.87,28.75,64.78,14.51,93.56-10.81,21.84-33.55,17.14-53.8,20.22-1.41.21-2.44,1.43-2.42,2.85l.58,42.72c.02,1.24.84,2.33,2.03,2.67,1.77.51,3.82.81,4.97.96,21.98,2.85,42.42.2,61.02-12.05,22.7-14.94,35.99-37.34,38.21-64.63,38.05,11.91,86.71,5.2,107.87-32.06,13.88-24.45,10.38-52.47,3.13-78.45Z"/>
  <path class="st0" d="M613.6,345.23c-.83-4.39-8.96-32.07-12.63-40.52-.61-1.41-2.23-2.06-3.65-1.49l-25.27,10.13c-8.24,3.58-16.47,7.33-16.95,8.25-.84,1.61,2.82,9.7,3.58,12.35,2.96,10.29,9.28,33.31,6.9,43.08-4.75,19.49-26.65,19.67-42.7,16.53-21.05-4.12-32.16-20.34-43.94-36.39-16.42-22.37-30.13-46.79-50.45-66.09-.52-2.33,7.29-4.16,9.21-4.81,22.86-7.77,46.37-13.54,69.24-21.25.31-1.79.18-3.66-.12-5.44-1.41-8.36-5.73-21.99-8.6-30.23-1.08-3.09-2.71-10.66-6.68-11.04l-116.78,35.71c-1.75.53-2.94,2.13-3,3.96-.37,11.77-1.78,24.21-.74,35.85.39,4.4,1.7,7.23,4.43,10.58,6.29,7.73,17.91,16.13,25.2,24.24,8.5,9.46,26.72,31.5,25.08,44.5-.59,4.66-6.45,10.93-10.11,13.74-19.67,15.1-91.22,15.69-105.08-7.89-5.3-9.01-6.98-14.55-3.9-24.35,1.8-5.73,6.16-8.02,2.58-14.54-2.47-4.51-8.6-6.78-13.1-8.96-3.28-1.59-20.89-9.75-22.94-9.83-2.78-.1-5.98,5.91-7.29,8.49-16.8,33.16-16.15,72.02,16.05,96.31,38.3,28.88,131.31,31.28,167.69-1.68,2.29-2.08,7.97-10.18,10.13-10.17,1.64,0,19.23,15.17,23.13,17.51,20.03,11.99,53.87,17.62,76.55,12.4,48.22-11.1,62.7-53.99,54.16-98.91Z"/>
  <path class="st0" d="M800.86,340.11c-.94-3.89-8.12-27.29-11.44-35.08-.61-1.44-2.26-2.11-3.7-1.51l-35.07,14.65-4.38,2.11c-1.19.57-1.83,1.9-1.54,3.19l2.09,9.3c6.88,23.41,17.21,59.72-17.49,62.94-35.8,3.32-38.49-36.22-50.61-58.84-2.86-5.33-4.81-7.02-11.19-6.47-3.08.26-21.07,9.2-24.89,11.32-8.15,4.52-11.17,5.89-8.85,15.35,6.79,27.69,25.02,56.93,15.58,86.7-8.55,26.98-33.84,21.99-56.13,25.57-1.37.22-2.39,1.38-2.41,2.77l-.4,43.03c.09.21.19.41.3.57,2.25,3.32,24.48,3.84,29.14,3.6,28.93-1.46,55.15-18.9,68.85-44.15,5.92-10.92,8.07-22.18,9.26-34.44,31.64,14.45,76.37,2.48,94.84-27.43,14.24-23.05,14.28-47.43,8.02-73.19Z"/>
  <path class="st0" d="M374.33,229.61c.78,1.85,1.47,3.88,2.14,5.85l1.65,4.51h0c.48,1.15,1.75,1.75,2.94,1.38l98.62-30.47c1.6-.5,2.42-2.26,1.76-3.81-2.44-5.79-4.54-12.25-7.88-17.48-.83-1.3-2.12-3.52-4.89-3.35-27.02,8.11-54.3,16.09-80.75,25.09-2.07.7-9.56,3.24-15.28,5.47-1.46.57-2.19,2.2-1.65,3.67l3.34,9.13Z"/>
</svg>